<svg viewBox="0 0 26 22" xmlns="http://www.w3.org/2000/svg"><path d="M18.18 1.93c-1.23 0-2.35.37-3.35 1.09a7.25 7.25 0 0 0-1.95 2.2c-.37-.64-1-1.52-1.96-2.2a5.92 5.92 0 0 0-9.35 5.02c0 3.75 3.23 6.32 8.1 10.2l2.74 2.21a.73.73 0 0 0 .93 0c.98-.8 1.92-1.54 2.75-2.2 4.87-3.9 8.1-6.46 8.1-10.22 0-3.47-2.59-6.1-6.01-6.1Z" fill="var(--color-like)"/><path fill-rule="evenodd" clip-rule="evenodd" d="M14.25 2.2a6.92 6.92 0 0 1 10.93 5.83c0 2.2-.96 4.02-2.47 5.72-1.47 1.66-3.55 3.32-5.94 5.23l-.06.05c-.83.66-1.76 1.4-2.73 2.2a1.73 1.73 0 0 1-2.2 0c-.97-.8-1.9-1.54-2.73-2.2l-.06-.05c-2.4-1.9-4.47-3.57-5.94-5.23-1.51-1.7-2.47-3.51-2.47-5.72a6.92 6.92 0 0 1 12.3-4.54c.37-.44.82-.89 1.37-1.28Zm-.76 2.11c-.25.33-.45.64-.61.9a6.81 6.81 0 0 0-1.96-2.2 5.92 5.92 0 0 0-9.35 5.02c0 3.76 3.23 6.33 8.1 10.22.83.66 1.77 1.4 2.74 2.2a.73.73 0 0 0 .93 0c.98-.8 1.92-1.54 2.75-2.2 4.87-3.9 8.1-6.46 8.1-10.22a5.92 5.92 0 0 0-10.7-3.72Z"/></svg>
